<svg width="25" height="24" viewBox="0 0 25 24" fill="none" xmlns="http://www.w3.org/2000/svg">
<path d="M3.52388 16.4309L6.88721 13.859C6.6949 13.2749 6.59091 12.65 6.59091 12C6.59091 11.35 6.6949 10.7251 6.88721 10.141L3.52388 7.56906C2.86791 8.90272 2.5 10.4063 2.5 12C2.5 13.5937 2.86791 15.0973 3.52388 16.4309Z" fill="#FBBC05"/>
<path d="M6.88725 10.141C7.66325 7.78407 9.8773 6.09091 12.5 6.09091C13.9091 6.09091 15.1819 6.59091 16.1819 7.40909L19.091 4.5C17.3182 2.95455 15.0455 2 12.5 2C8.54828 2 5.1505 4.2621 3.52393 7.56906L6.88725 10.141Z" fill="#EA4335"/>
<path d="M12.5001 22C8.54719 22 5.14863 19.7366 3.52258 16.4282L6.88454 13.8507C7.65807 16.212 9.87423 17.9091 12.5001 17.9091C13.7849 17.9091 14.9234 17.6065 15.825 17.0375L19.018 19.5095C17.2701 21.1346 14.9392 22 12.5001 22Z" fill="#34A853"/>
<path d="M12.5 10.1818H21.8182C21.9545 10.7727 22.0455 11.4091 22.0455 12C22.0455 15.2593 20.8531 17.8032 19.0179 19.5095L15.825 17.0375C16.869 16.3786 17.5953 15.3626 17.8636 14.0455H12.5V10.1818Z" fill="#4285F4"/>
</svg>
